<?xml version="1.0" encoding="iso-8859-1"?>
<!-- Generator: Adobe Illustrator 19.2.0, SVG Export Plug-In . SVG Version: 6.00 Build 0)  -->
<svg version="1.1" id="Layer_1" xmlns="http://www.w3.org/2000/svg" xmlns:xlink="http://www.w3.org/1999/xlink" x="0px" y="0px"
	 viewBox="0 0 531.351 201.623" style="enable-background:new 0 0 531.351 201.623;" xml:space="preserve">
<g>
	<path style="fill:#EA7A06;" d="M0.224,109.664c0.35,4.494,1.152,8.897,2.311,12.969c2.331,8.186,5.993,14.858,9.917,20.193
		c3.948,5.36,8.2,9.538,12.447,13.064c8.525,6.998,17.048,11.506,25.061,15.038c8.027,3.492,15.594,5.893,22.522,7.702
		c13.865,3.568,25.18,4.799,33.006,5.093c7.831,0.263,12.188-0.492,12.232-1.638c0.046-1.159-4.165-2.596-11.749-4.832
		c-7.575-2.265-18.551-5.258-31.818-10.189c-6.624-2.484-13.821-5.464-21.32-9.338c-7.474-3.893-15.325-8.64-22.707-15.17
		c-3.673-3.271-7.215-7.01-10.271-11.365c-3.054-4.345-5.585-9.329-7.073-14.812c-0.743-2.741-1.234-5.6-1.442-8.56
		c-0.106-1.479-0.143-2.983-0.109-4.508c0.006-0.38,0.02-0.764,0.036-1.147l0.027-0.567l0.031-0.489
		c0.048-0.652,0.119-1.302,0.212-1.951c0.725-5.177,3.125-10.424,6.457-15.089c0.025,0.036,1.887-2.986,6.41-7.573
		c4.505-4.582,11.794-10.475,21.714-16.223c9.902-5.785,22.357-11.489,36.8-16.667c14.443-5.19,30.868-9.883,48.732-13.934
		c35.733-8.11,77.207-13.67,120.368-16.129c43.16-2.44,88.044-1.879,130.581,2.713c4.862,0.528,9.689,1.111,14.48,1.752
		c10.983,1.421,22.032,3.209,33.085,5.489c11.051,2.287,22.111,5.053,33.067,8.586c10.944,3.555,21.821,7.814,32.238,13.638
		c5.196,2.928,10.28,6.26,15.02,10.31c4.709,4.055,9.166,8.857,12.36,14.92c1.817,3.463,3.152,7.355,3.689,11.487
		c0.275,2.069,0.33,4.141,0.254,6.391c-0.071,2.205-0.273,4.398-0.607,6.554c-0.868,5.655-2.658,10.997-5.026,15.788
		c-2.369,4.8-5.283,9.076-8.454,12.913c-6.373,7.671-13.697,13.684-21.227,18.863c-5.039,3.45-10.21,6.51-15.451,9.309
		c-4.68,2.536-9.424,4.855-14.213,7.006c-4.834,2.165-9.713,4.164-14.76,6.071c-5.787,2.19-11.624,4.193-17.492,6.046
		s-11.772,3.556-17.7,5.136c-16.594,4.396-33.34,7.885-50.168,10.797c-16.829,2.905-33.742,5.222-50.71,7.111
		c-16.967,1.883-33.99,3.335-51.052,4.423c-17.063,1.078-34.164,1.822-51.298,2.107c-1.359,0.18-3.103,0.371-6.607,0.525
		c16.617,0.352,33.326,0.037,50.1-0.644c16.771-0.699,33.597-1.83,50.421-3.404c33.643-3.185,67.3-7.99,100.394-15.586
		c5.886-1.36,11.745-2.82,17.574-4.395c5.822-1.574,11.617-3.266,17.36-5.093c5.604-1.775,10.864-3.583,16.098-5.538
		c5.097-1.915,10.171-3.978,15.209-6.239c5.558-2.517,11.006-5.255,16.375-8.343c6.685-3.857,13.263-8.241,19.535-13.585
		c6.246-5.361,12.266-11.663,17.223-19.86c2.462-4.096,4.632-8.697,6.219-13.799c1.593-5.088,2.563-10.675,2.768-16.31
		c0.027-0.704,0.04-1.408,0.046-2.111c0.001-0.736-0.009-1.474-0.042-2.211c-0.066-1.472-0.204-2.941-0.417-4.382
		c-0.422-2.885-1.133-5.649-2.044-8.2c-1.832-5.117-4.383-9.368-7.13-13.014c-4.762-6.178-10.143-10.774-15.632-14.733
		c-9.646-6.854-19.742-11.721-29.906-15.852c-10.176-4.093-20.463-7.346-30.774-10.125c-20.63-5.521-41.356-9.182-61.935-11.945
		c-5.008-0.66-10-1.259-15.074-1.805c-42.059-4.526-85.873-5.305-127.802-3.154c-41.931,2.165-81.995,7.332-116.589,15.069
		c-17.296,3.866-33.223,8.377-47.321,13.431C62.586,34.689,50.32,40.3,40.345,46.141c-9.982,5.798-17.646,11.942-22.676,17.036
		c-5.042,5.075-7.473,8.839-7.483,8.787C8.02,75.022,5.982,78.449,4.27,82.41C2.56,86.354,1.19,90.886,0.517,95.758
		c-0.169,1.214-0.296,2.444-0.378,3.679l-0.053,0.926l-0.035,0.85c-0.02,0.561-0.036,1.124-0.042,1.688
		C-0.025,105.153,0.045,107.419,0.224,109.664z"/>
	<path style="fill:#EA7A06;" d="M145.291,172.544c-0.778,0-1.536,0.068-2.27,0.196c-0.741,0.132-1.455,0.325-2.151,0.576
		c-6.5,2.817-13.208,3.747-19.52,7.031c-0.791,0.664-1.062,1.255-0.874,1.744c8.234,3.337,16.41,7.057,24.815,9.738
		c0.778,0.007,1.536-0.062,2.27-0.191c0.733-0.128,1.441-0.317,2.114-0.561c4.043-1.465,6.879-4.892,6.879-8.888
		C156.554,176.862,151.512,172.544,145.291,172.544z"/>
</g>
</svg>
