<svg style="position: absolute; width: 0; height: 0;" width="0" height="0" version="1.1" xmlns="http://www.w3.org/2000/svg" xmlns:xlink="http://www.w3.org/1999/xlink">
<defs>
<symbol id="bill" viewBox="0 0 825 1024">
<path class="path1" d="M768.632 0h-527.611c-2.64 0-5.17 3.423-7.048 5.271l-157.887 156.873-74.732 73.698c-2.048 2.008-1.185 5.030-1.104 7.76 0 0.070 1.747 0.432 1.747 0.502v724.42c0 33.22 23.452 55.467 56.671 55.467h709.973c33.22 0 56.581-22.257 56.581-55.467v-903.529c-0.020-33.21-23.381-64.994-56.591-64.994zM805.125 968.533c0 22.147-14.356 35.388-36.503 35.388h-709.963c-22.147 0-36.593-13.242-36.593-35.388v-716.8l214.277-46.010c16.013-3.413 28.752-12.91 37.496-26.755 8.734-13.844 11.003-32.617 7.198-48.54l-26.222-110.351h513.817c22.147 0 36.503 22.779 36.503 44.925v903.529zM236.484 34.515l24.586 102.962c2.54 10.621 0.723 21.544-5.1 30.76-5.833 9.236-14.908 15.571-25.59 17.83l-190.243 40.518 196.347-192.070z"></path>
<path class="path2" d="M508.948 579.273l-13.874 35.89c43.55 27.196 72.523 75.545 72.523 130.68 0 76.9-56.37 140.619-130.048 152.114l-25.409 39.745c0.502 0 0.994 0.020 1.496 0.020 105.964 0 191.869-85.906 191.869-191.88 0.010-71.288-38.862-133.481-96.557-166.571z"></path>
<path class="path3" d="M259.684 745.833c0-57.956 32.025-108.424 79.35-134.696l18.010-48.69c-78.346 24.164-135.278 97.129-135.278 183.386 0 81.408 50.708 150.97 122.248 178.839l11.535-36.232c-56.23-22.909-95.864-78.125-95.864-142.607z"></path>
<path class="path4" d="M427.269 714.862l66.5-172.745h-100.814l-87.492 237.156 113.052-1.907-53.589 166.32h8.323l148.57-230.41z"></path>
<path class="path5" d="M764.968 90.353h-381.49c-5.552 0-10.039 4.488-10.039 10.039s4.488 10.039 10.039 10.039h381.49c5.552 0 10.039-4.488 10.039-10.039s-4.488-10.039-10.039-10.039z"></path>
<path class="path6" d="M764.968 170.667h-381.49c-5.552 0-10.039 4.488-10.039 10.039s4.488 10.039 10.039 10.039h381.49c5.552 0 10.039-4.488 10.039-10.039s-4.488-10.039-10.039-10.039z"></path>
<path class="path7" d="M764.968 311.216h-702.745c-5.552 0-10.039 4.488-10.039 10.039s4.488 10.039 10.039 10.039h702.745c5.552 0 10.039-4.488 10.039-10.039s-4.488-10.039-10.039-10.039z"></path>
<path class="path8" d="M764.968 391.529h-702.745c-5.552 0-10.039 4.488-10.039 10.039s4.488 10.039 10.039 10.039h702.745c5.552 0 10.039-4.488 10.039-10.039s-4.488-10.039-10.039-10.039z"></path>
<path class="path9" d="M764.968 471.843h-702.745c-5.552 0-10.039 4.488-10.039 10.039s4.488 10.039 10.039 10.039h702.745c5.552 0 10.039-4.488 10.039-10.039s-4.488-10.039-10.039-10.039z"></path>
</symbol>
<symbol id="ac" viewBox="0 0 1546 1024">
<path class="path1" d="M605.624 897.587c4.391-9.521 9.357-20.306 9.357-40.108 0-27.027-10.293-46.35-19.369-63.388-7.787-14.603-13.935-26.138-13.935-41.794 0-21.992 4.274-33.222 13.233-48.68 6.979-12.027 2.881-27.437-9.146-34.417-12.038-6.968-27.437-2.869-34.405 9.146-12.378 21.325-20.036 41.138-20.036 73.951 0 28.222 10.996 48.879 19.837 65.461 7.518 14.123 13.467 25.271 13.467 39.733 0 8.748-1.382 11.769-4.731 19.029-3.864 8.373-8.83 19.369-11.945 38.913l-37.625 0.141 63.189 108.438 62.322-108.941-36.618 0.152c1.827-7.588 4.063-12.565 6.406-17.636z"></path>
<path class="path2" d="M805.426 897.587c4.38-9.521 9.357-20.306 9.357-40.108 0-27.027-10.293-46.35-19.369-63.388-7.787-14.603-13.935-26.138-13.935-41.794 0-22.027 4.274-33.234 13.233-48.645 6.991-12.027 2.916-27.437-9.099-34.44-12.027-6.979-27.437-2.916-34.417 9.099-12.39 21.313-20.072 41.103-20.072 73.986 0 28.222 10.996 48.879 19.837 65.461 7.518 14.123 13.467 25.271 13.467 39.733 0 8.748-1.382 11.769-4.731 19.029-3.864 8.373-8.83 19.369-11.956 38.89l-37.625 0.164 63.201 108.438 62.322-108.953-36.618 0.152c1.815-7.588 4.063-12.553 6.406-17.624z"></path>
<path class="path3" d="M1005.228 897.587c4.38-9.521 9.357-20.306 9.357-40.108 0-27.027-10.293-46.35-19.369-63.388-7.787-14.603-13.935-26.138-13.935-41.794 0-22.015 4.274-33.222 13.256-48.645 6.991-12.027 2.916-27.437-9.099-34.44-12.015-6.979-27.426-2.916-34.417 9.099-12.401 21.325-20.083 41.127-20.083 73.986 0 28.222 10.996 48.879 19.837 65.461 7.518 14.123 13.467 25.271 13.467 39.733 0 8.748-1.382 11.769-4.731 19.029-3.864 8.373-8.83 19.369-11.945 38.913l-37.625 0.141 63.189 108.438 62.322-108.941-36.618 0.152c1.815-7.588 4.052-12.565 6.394-17.636z"></path>
<path class="path4" d="M1545.766 95.627c0-52.814-42.813-95.627-95.627-95.627h-1354.513c-52.814 0-95.627 42.813-95.627 95.627v405.974c0 52.814 42.813 95.627 95.627 95.627h1354.513c52.814 0 95.627-42.813 95.627-95.627v-405.974zM1522.346 501.601c0 39.874-32.332 72.206-72.206 72.206h-1354.513c-39.874 0-72.206-32.332-72.206-72.206v-405.974c0-39.874 32.332-72.206 72.206-72.206h1354.513c39.874 0 72.206 32.332 72.206 72.206v405.974z"></path>
<path class="path5" d="M1393.532 103.824c0-25.002-20.271-45.272-45.284-45.272h-49.968c-25.002 0-45.272 20.271-45.272 45.272v49.98c0 25.002 20.271 45.272 45.284 45.272h49.968c25.013 0 45.284-20.271 45.284-45.272v-49.98zM1370.111 153.804c0 12.073-9.79 21.852-21.863 21.852h-49.968c-12.073 0-21.863-9.79-21.863-21.852v-49.98c0.012-12.062 9.802-21.852 21.875-21.852h49.968c12.062 0 21.852 9.79 21.852 21.852v49.98z"></path>
<path class="path6" d="M1194.456 103.824c0-25.002-20.271-45.272-45.272-45.272h-49.98c-25.002 0-45.272 20.271-45.272 45.272v49.98c0 25.002 20.271 45.272 45.272 45.272h49.98c25.002 0 45.272-20.271 45.272-45.272v-49.98zM1171.035 153.804c0 12.062-9.79 21.852-21.852 21.852h-49.98c-12.062 0-21.852-9.79-21.852-21.852v-49.98c0-12.062 9.79-21.852 21.852-21.852h49.98c12.062 0 21.852 9.79 21.852 21.852v49.98z"></path>
<path class="path7" d="M1405.336 456.704h-1264.917c-18.537 0-33.562 10.282-33.562 23.409 0 13.139 15.024 23.432 33.562 23.432h1264.917c18.537 0 33.562-10.282 33.562-23.432 0-13.127-15.024-23.409-33.562-23.409z"></path>
<path class="path8" d="M1405.336 363.021h-1264.917c-18.537 0-33.562 10.282-33.562 23.409 0 13.139 15.024 23.432 33.562 23.432h1264.917c18.537 0 33.562-10.282 33.562-23.432 0-13.127-15.024-23.409-33.562-23.409z"></path>
<path class="path9" d="M1405.336 269.338h-1264.917c-18.537 0-33.562 10.282-33.562 23.409 0 13.139 15.024 23.432 33.562 23.432h1264.917c18.537 0 33.562-10.282 33.562-23.432 0-13.127-15.024-23.409-33.562-23.409z"></path>
</symbol>
<symbol id="fridge" viewBox="0 0 946 1024">
<path class="path1" d="M931.045 6.525c-9.273-6.595-20.51-8.317-31.284-4.571l-215.088 74.942v-29.723c0-24.981-22.343-40.114-47.323-40.114h-595.233c-24.981 0-42.118 15.123-42.118 40.114v881.225c0 24.981 17.137 45.259 42.118 45.259h8.226v20.017c0 16.654 8.538 30.327 25.192 30.327h528.397c16.654 0 30.397-13.673 30.397-30.327v-20.017h3.021c24.981 0 47.323-20.268 47.323-45.259v-29.733l214.776 74.942c3.756 1.309 7.149 1.943 11.035 1.943 7.239 0 14.761-2.225 20.802-6.514 9.283-6.595 15.174-17.328 15.174-28.716v-905.078c0-11.388-6.142-22.121-15.415-28.716zM654.468 928.397c0 8.327-8.79 15.053-17.117 15.053h-595.233c-8.327 0-11.911-6.726-11.911-15.053v-881.225c0-8.327 3.584-9.908 11.911-9.908h595.233c8.327 0 17.117 1.571 17.117 9.908v881.225zM916.255 940.319c0 2.265-1.933 3.544-2.729 4.108-0.785 0.564-1.712 1.379-3.856 0.644l-224.996-78.395v-757.793l224.694-78.395c2.135-0.725 3.887 0.081 4.672 0.654 0.785 0.564 2.215 1.843 2.215 4.098v905.078z"></path>
<path class="path2" d="M403.746 585.436c0-40.829-33.217-74.992-74.045-74.992s-74.045 34.636-74.045 75.465c0 27.407 15.002 45.41 37.184 65.547h-86.843c22.181-20.137 37.184-38.624 37.184-66.031 0-40.829-33.217-74.992-74.045-74.992s-74.045 34.636-74.045 75.465c0 27.407 15.002 45.41 37.184 65.547h-41.654v20.137h483.299v-20.137h-207.355c22.181-20.127 37.184-38.604 37.184-66.011zM275.793 583.533c0-29.723 24.175-53.908 53.908-53.908s53.908 24.175 53.908 53.908-24.185 53.908-53.908 53.908-53.908-24.175-53.908-53.908zM115.227 583.533c0-29.723 24.185-53.908 53.908-53.908s53.908 24.175 53.908 53.908-24.185 53.908-53.908 53.908-53.908-24.175-53.908-53.908z"></path>
<path class="path3" d="M564.312 786.136c0-40.829-33.217-74.992-74.045-74.992s-74.045 34.636-74.045 75.465c0 27.87 15.486 46.085 38.281 66.222h-89.038c22.796-20.137 38.281-38.825 38.281-66.695 0-40.829-33.217-74.992-74.045-74.992s-74.045 34.636-74.045 75.465c0 27.87 15.486 46.085 38.281 66.222h-89.038c22.796-20.137 38.281-38.825 38.281-66.695 0-40.829-33.217-74.992-74.045-74.992s-74.045 34.636-74.045 75.465c0 27.87 15.486 46.085 38.281 66.222h-42.752v20.137h483.299v-20.137h-47.887c22.796-20.137 38.281-38.825 38.281-66.695zM436.359 784.243c0-29.723 24.175-53.908 53.908-53.908s53.908 24.175 53.908 53.908-24.185 53.908-53.908 53.908-53.908-24.185-53.908-53.908zM275.793 784.243c0-29.723 24.175-53.908 53.908-53.908s53.908 24.175 53.908 53.908-24.185 53.908-53.908 53.908-53.908-24.185-53.908-53.908zM115.227 784.243c0-29.723 24.185-53.908 53.908-53.908s53.908 24.175 53.908 53.908-24.185 53.908-53.908 53.908-53.908-24.185-53.908-53.908z"></path>
<path class="path4" d="M523.574 288.983h-231.581v161.1h-20.137v-161.1h-140.962v161.1h-40.275v20.137h483.299v-20.137h-50.344v-161.1zM312.131 309.12h191.306v130.894h-191.306v-130.894zM151.031 309.12h100.687v130.894h-100.687v-130.894z"></path>
<path class="path5" d="M543.711 117.814h-110.756v130.894h-40.275v-130.894h-110.756v130.894h-40.275v-130.894h-110.756v130.894h-40.275v20.137h483.299v-20.137h-30.206v-130.894zM453.093 137.952h70.481v100.687h-70.481v-100.687zM302.062 137.952h70.481v100.687h-70.481v-100.687zM151.031 137.952h70.481v100.687h-70.481v-100.687z"></path>
</symbol>
<symbol id="pump" viewBox="0 0 1024 1024">
<path class="path1" d="M512 0c-282.316 0-512 229.684-512 512s229.684 512 512 512 512-229.684 512-512-229.694-512-512-512zM29.825 512c0-265.872 216.303-482.175 482.175-482.175s482.175 216.303 482.175 482.175-216.313 482.175-482.175 482.175-482.175-216.303-482.175-482.175z"></path>
<path class="path2" d="M504.822 244.398c57.056-1.521 112.68 14.972 159.585 47.522l114.658-30.342c-66.809-71.203-161.732-115.702-267.065-115.702-202.205 0-366.115 163.92-366.115 366.125 0 58.557 13.829 115.921 40.692 167.906-4.712-24.188-7.218-49.271-7.218-74.981-0.010-196.558 145.060-356.382 325.463-360.528z"></path>
<path class="path3" d="M598.493 348.637c-42.083-22.25-92.657-28.384-141.7-13.153-97.896 30.392-152.646 134.353-122.254 232.239 30.392 97.906 134.373 152.626 232.269 122.244 81.781-25.391 133.418-102.132 130.495-183.803l139.94-163.343-30.72-48.993-208.031 54.809zM558.498 587.14c-41.109 25.779-95.331 13.332-121.1-27.767-25.769-41.109-13.342-95.321 27.767-121.090s95.321-13.332 121.081 27.777c25.789 41.089 13.362 95.302-27.747 121.081z"></path>
</symbol>
<symbol id="idea" viewBox="0 0 682 1024">
<path class="path1" d="M529.49 48.888c-112.632-65.187-263.978-65.177-376.6 0.030-99.027 57.325-153.324 155.686-152.891 276.957 0.323 89.399 36.151 178.919 100.884 252.059l9.86 10.082c30.853 34.607 47.899 58.021 68.084 102.489v213.637c0 17.722 10.153 39.078 61.927 54.752 20.821 42.62 57.527 65.116 100.521 65.116 0.020 0 0.040 0 0.071 0 42.953 0 78.691-22.536 99.431-65.137 51.754-15.674 61.009-37.029 61.009-54.731v-213.354c20.185-44.376 37.958-67.983 68.82-102.61l10.012-10.264c64.753-73.16 101.025-162.69 101.338-252.089 0.424-121.261-53.429-219.622-152.467-276.937zM430.837 943.513l-3.653 1.282-1.494 1.534c-16.915 37.705-48.181 57.487-84.363 57.487-0.020 0-0.040 0-0.061 0-36.232 0-68.013-19.751-85.009-57.487l-1.928-2.917-3.653-0.575c-33.406-9.376-51.673-23.041-51.673-38.705v-17.218c50.462 8.225 94.082 12.535 140.971 12.535 46.879 0 91.155-4.299 141.617-12.525v17.218c0.010 21.416-31.125 33.86-50.755 39.371zM187.144 875.106v0 0 0zM199.013 758.336v-48.373c100.924 16.471 181.664 16.481 282.589 0v48.383c-100.924 16.814-181.664 16.804-282.589-0.010zM187.144 766.966v0 0 0zM187.144 821.041v0 0 0zM481.602 866.487c-100.924 16.794-181.664 16.794-282.589 0v-33.658c50.462 8.235 94.092 12.535 140.992 12.535 46.869 0 91.135-4.299 141.597-12.525v33.648zM481.602 812.422c-100.924 16.804-181.664 16.784-282.589-0.010v-33.648c50.462 8.235 94.072 12.525 140.971 12.525 46.869 0 91.155-4.289 141.617-12.515v33.648zM495.267 766.986v0 0 0zM495.277 875.136v0 0 0zM495.267 821.061v0 0 0zM557.325 574.745c-31.478 35.313-54.54 61.191-71.293 109.755-99.935 17.934-192.322 17.934-289.663 0-16.895-48.726-39.966-74.603-71.455-109.927l-8.922-10.032c-61.473-69.456-95.505-154.243-95.808-238.747-0.404-113.732 50.321-205.856 142.818-259.416 106.586-61.705 249.798-61.705 356.385-0.020 92.507 53.551 143.242 145.674 142.849 259.396-0.293 84.494-34.324 169.291-95.828 238.777l-9.083 10.214z"></path>
<path class="path2" d="M462.951 123.511c-29.218-23.697-68.356-35.556-117.426-35.556-59.616 0-116.225 14.957-169.856 44.891l39.139 78.64c46.203-23.465 87.138-35.192 122.815-35.192 20.831 0 36.938 4.077 48.302 12.212s17.056 19.63 17.056 34.476-3.946 27.774-11.849 38.785-24.726 25.806-50.452 44.346c-25.726 18.55-44.982 36.393-54.812 53.51-9.82 17.107-16.208 37.17-16.208 60.151v28.955h100.924v-23.919c0-14.362 1.595-25.978 7.579-34.829 5.975-8.851 19.892-21.78 43.115-38.785 33.759-24.424 56.205-46.022 68.063-64.814 11.849-18.802 17.601-41.48 17.601-68.053-0.010-39.512-14.785-71.111-43.993-94.819z"></path>
<path class="path3" d="M323.796 508.114c-20.235 0-35.727 5.157-46.506 15.441s-16.158 25.312-16.158 45.073c0 19.751 5.51 34.96 16.521 45.608s26.392 15.976 46.143 15.976c19.751 0 35.192-5.44 46.324-16.34s16.703-25.978 16.703-45.244c0-19.266-5.44-34.173-16.34-44.71s-26.452-15.805-46.688-15.805z"></path>
</symbol>
<symbol id="arrow" viewBox="0 0 1667 1024">
<path class="path1" d="M187.791 712.847c1.311-1.751 2.857-3.215 4.567-4.403-25.958-4.127-50.299-8.653-72.151-13.107l94.433 64.348-23.665-19.784c-8.079-6.728-9.482-18.606-3.185-27.054z"></path>
<path class="path2" d="M1463.194 415.549c-283.924-212.879-670.833-340.541-1068.431-415.549l-59.679 14.602c412.211 65.659 818.145 188.57 1112.525 409.293 114.719 86.026 228.895 232.428 160.020 329.984-152.965 216.699-1027.748 189.501-1386.035-41.103 88.556 12.216 191.314 18.094 278.528 0.85l-7.69-38.871c-247.194 45.681-464.312-42.066-467.087-42.854-9.37-2.775-19.282 1.751-23.439 10.588-4.157 8.786-1.26 19.313 6.769 24.791l518.513 353.29c8.714 5.939 20.593 3.994 26.941-4.424 6.38-8.438 5.018-20.378-3.103-27.146l-199.956-167.004c426.281 169.615 1142.927 161.536 1288.94-45.281 48.138-68.178 56.535-186.173-176.814-361.165zM120.207 695.337c21.852 4.454 46.193 8.991 72.151 13.107-1.71 1.188-3.256 2.652-4.567 4.403-6.298 8.448-4.895 20.326 3.185 27.054l23.665 19.784-94.433-64.348z"></path>
</symbol>
</defs>
</svg>
